<?xml version="1.0" encoding="UTF-8" standalone="no"?>
<!DOCTYPE svg PUBLIC "-//W3C//DTD SVG 1.1//EN" "http://www.w3.org/Graphics/SVG/1.1/DTD/svg11.dtd">
<svg width="100%" height="100%" viewBox="0 0 1200 1200" version="1.1" xmlns="http://www.w3.org/2000/svg" xmlns:xlink="http://www.w3.org/1999/xlink" xml:space="preserve" xmlns:serif="http://www.serif.com/" style="fill-rule:evenodd;clip-rule:evenodd;stroke-linejoin:round;stroke-miterlimit:2;">
    <g id="Logo">
        <g id="Color">
            <path d="M150,150L150,1050L250,1050L250,400L600,750L1050,300L1050,150L600,600L150,150Z" style="fill:rgb(0,220,250);"/>
            <path d="M1050,450L1050,1050L950,1050L950,700L600,1050L350,800L350,650L600,900L1050,450Z" style="fill:rgb(0,100,200);"/>
        </g>
        <g id="Gradients-v2" serif:id="Gradients v2">
            <path d="M150,1050L250,400L250,1050L150,1050Z" style="fill:url(#_Linear1);"/>
            <path d="M150,150L150,1050L250,400L600,750L150,150Z" style="fill:url(#_Linear2);"/>
            <path d="M1050,300L600,750L150,150L600,600L1050,300Z" style="fill:url(#_Linear3);"/>
            <path d="M1050,150L600,600L1050,300L1050,150Z" style="fill:url(#_Linear4);"/>
            <path d="M350,650L350,800L600,900L350,650Z" style="fill:url(#_Linear5);"/>
            <path d="M350,800L600,1050L1050,450L600,900L350,800Z" style="fill:url(#_Linear6);"/>
            <path d="M1050,450L600,1050L950,700L1050,1050L1050,450Z" style="fill:url(#_Linear7);"/>
            <path d="M950,700L950,1050L1050,1050L950,700Z" style="fill:url(#_Linear8);"/>
        </g>
    </g>
    <defs>
        <linearGradient id="_Linear1" x1="0" y1="0" x2="1" y2="0" gradientUnits="userSpaceOnUse" gradientTransform="matrix(3.9801e-14,-650,650,3.9801e-14,250,1050)"><stop offset="0" style="stop-color:rgb(0,220,250);stop-opacity:1"/><stop offset="1" style="stop-color:rgb(0,193,226);stop-opacity:1"/></linearGradient>
        <linearGradient id="_Linear2" x1="0" y1="0" x2="1" y2="0" gradientUnits="userSpaceOnUse" gradientTransform="matrix(-100,-750,1500,-200,250,900)"><stop offset="0" style="stop-color:rgb(0,189,225);stop-opacity:1"/><stop offset="1" style="stop-color:rgb(0,154,197);stop-opacity:1"/></linearGradient>
        <linearGradient id="_Linear3" x1="0" y1="0" x2="1" y2="0" gradientUnits="userSpaceOnUse" gradientTransform="matrix(200,-300,300,200,600,750)"><stop offset="0" style="stop-color:rgb(0,190,226);stop-opacity:1"/><stop offset="1" style="stop-color:rgb(0,207,236);stop-opacity:1"/></linearGradient>
        <linearGradient id="_Linear4" x1="0" y1="0" x2="1" y2="0" gradientUnits="userSpaceOnUse" gradientTransform="matrix(-450,300,-300,-450,1050,150)"><stop offset="0" style="stop-color:rgb(54,240,251);stop-opacity:1"/><stop offset="1" style="stop-color:rgb(16,232,251);stop-opacity:1"/></linearGradient>
        <linearGradient id="_Linear5" x1="0" y1="0" x2="1" y2="0" gradientUnits="userSpaceOnUse" gradientTransform="matrix(250,250,-250,250,350,650)"><stop offset="0" style="stop-color:rgb(35,145,216);stop-opacity:1"/><stop offset="1" style="stop-color:rgb(26,121,192);stop-opacity:1"/></linearGradient>
        <linearGradient id="_Linear6" x1="0" y1="0" x2="1" y2="0" gradientUnits="userSpaceOnUse" gradientTransform="matrix(150,-450,450,150,600,1050)"><stop offset="0" style="stop-color:rgb(0,67,171);stop-opacity:1"/><stop offset="1" style="stop-color:rgb(0,100,200);stop-opacity:1"/></linearGradient>
        <linearGradient id="_Linear7" x1="0" y1="0" x2="1" y2="0" gradientUnits="userSpaceOnUse" gradientTransform="matrix(-300,500,-500,-300,1050,450)"><stop offset="0" style="stop-color:rgb(0,40,129);stop-opacity:1"/><stop offset="1" style="stop-color:rgb(0,63,166);stop-opacity:1"/></linearGradient>
        <linearGradient id="_Linear8" x1="0" y1="0" x2="1" y2="0" gradientUnits="userSpaceOnUse" gradientTransform="matrix(-1.34e-13,-350,350,-1.34e-13,950,1050)"><stop offset="0" style="stop-color:rgb(0,100,200);stop-opacity:1"/><stop offset="1" style="stop-color:rgb(0,73,171);stop-opacity:1"/></linearGradient>
    </defs>
</svg>
