<?xml version="1.0" encoding="UTF-8" standalone="no"?>
<svg width="100%" height="100%" viewBox="0 0 620 200" version="1.1" xmlns="http://www.w3.org/2000/svg" xml:space="preserve" style="fill-rule:evenodd;clip-rule:evenodd;stroke-linejoin:round;stroke-miterlimit:2;">
    <g>
        <text x="18.165px" y="137.025px" style="font-family:'Inter-Black', 'Inter';font-weight:900;font-size:104.534px;">Not<tspan x="200.802px " y="137.025px ">e</tspan>s</text>
        <text x="381.779px" y="137.025px" style="font-family:'Inter-Black', 'Inter';font-weight:900;font-size:104.534px;">App</text>
        <path d="M343.155,52C343.155,45.653 338.002,40.5 331.655,40.5C331.655,40.5 319.155,40.5 319.155,40.5L319.155,19.5L331.655,19.5C340.137,19.5 347.865,22.757 353.655,28.087C359.445,22.757 367.172,19.5 375.655,19.5C375.655,19.5 388.155,19.5 388.155,19.5L388.155,40.5L375.655,40.5C369.308,40.5 364.155,45.653 364.155,52L364.155,148C364.155,154.347 369.308,159.5 375.655,159.5C375.655,159.5 388.155,159.5 388.155,159.5L388.155,180.5L375.655,180.5C367.172,180.5 359.445,177.243 353.655,171.913C347.865,177.243 340.137,180.5 331.655,180.5C331.655,180.5 319.155,180.5 319.155,180.5L319.155,159.5L331.655,159.5C338.002,159.5 343.155,154.347 343.155,148L343.155,52Z"/>
    </g>
</svg>
